<svg xmlns="http://www.w3.org/2000/svg" viewBox="0 0 101 180.5"><defs><style>.cls-1,.cls-4{fill:#eda235;}.cls-2{fill:none;stroke:#0168b3;stroke-miterlimit:10;}.cls-3{fill:#0168b3;}.cls-4{font-size:4.97px;font-family:CeraRoundProDEMO-Black, Cera Round Pro DEMO;}.cls-5{letter-spacing:-0.04em;}.cls-6{letter-spacing:-0.05em;}.cls-7{fill:#cadce0;}</style></defs><title>boy_itlsvg</title><g id="Слой_2" data-name="Слой 2"><g id="Слой_1-2" data-name="Слой 1"><path class="cls-1" d="M100.5,180H.5a54.35,54.35,0,0,1,14.75-37.55c.43-.45.85-.88,1.29-1.31a50.81,50.81,0,0,1,4.13-3.63c.94-.74,1.92-1.45,2.91-2.12s2-1.31,3.05-1.91a.06.06,0,0,1,0,0c.4-.24.8-.48,1.19-.74a28.39,28.39,0,0,0,3.39-2.49,25.93,25.93,0,0,0,38.57,0c.31.27.63.53,1,.78s.89.69,1.35,1,.68.48,1,.7.79.5,1.18.73l.1,0,.08,0q1.74,1,3.39,2.16c.36.25.73.51,1.09.78s1,.72,1.41,1.1h0A53.87,53.87,0,0,1,100.5,180Z"/><path class="cls-2" d="M12.92,33.3l-.8,33.4c0,28.13,23.32,50.93,38.38,50.93S88.88,94.83,88.88,66.7L88,33.57Z"/><path class="cls-3" d="M12.12,67.58c1.29,0,2.34-1.92,2.34-4.28V36.05H12.12Z"/><path class="cls-3" d="M88.86,66.55V36.05h-2V62.4c0,2.29.91,4.15,2,4.15Z"/><path class="cls-3" d="M88.88,35.05c0,4.74,1.06,5.88-2.06,5.62-.13-2.3-17.09-4.16-36.31-4.16s-35.93,1.91-36,4.2c-3.13.26-2.33-.92-2.33-5.66,0-.46,0-1,0-1.47C12.63,21.87,18.86,0,50.51,0S88.38,21.87,88.85,33.58c0,.51,0,1,0,1.47Z"/><polygon class="cls-3" points="78.04 158.52 73.05 162.56 68.02 158.67 67.46 147.72 78.56 147.65 78.04 158.52"/><text class="cls-4" transform="translate(69.11 153) scale(0.94 1)">I<tspan class="cls-5" x="1.5" y="0">T</tspan><tspan x="4.22" y="0">-</tspan><tspan class="cls-6" x="5.91" y="0">L</tspan></text><polygon class="cls-3" points="55.5 151.15 46.31 151.15 42.17 138.75 58.74 138.75 55.5 151.15"/><path class="cls-7" d="M42.89,148.64c-5.81.15-17.59-12.15-18.24-13.67a.07.07,0,0,1,0-.1l6.71-4.4a.08.08,0,0,1,.1,0c3.16,3.08,15.73,8.41,18.31,8.27a.08.08,0,0,1,.06.13L43,148.6Z"/><path class="cls-7" d="M58.29,148.86C64.12,149,76,136.39,76.55,135a.06.06,0,0,0,0-.07l-6.91-4.35a.06.06,0,0,0-.07,0c-3.15,3.08-15.22,8.38-17.73,8.21a.06.06,0,0,0,0,.09l6.49,10A.05.05,0,0,0,58.29,148.86Z"/><path class="cls-2" d="M100.5,180H.5a54.35,54.35,0,0,1,14.75-37.55c.43-.45.85-.88,1.29-1.31a50.69,50.69,0,0,1,4.13-3.62c.94-.75,1.92-1.45,2.91-2.13s2-1.31,3.05-1.91a.06.06,0,0,1,0,0c.4-.24.8-.48,1.19-.74a28.39,28.39,0,0,0,3.39-2.49,33.59,33.59,0,0,0,10.09-14.89h0a21.87,21.87,0,0,0,9.16,2.46,22.9,22.9,0,0,0,9.27-2.5,33.4,33.4,0,0,0,10,14.95c.31.27.63.53,1,.78s.89.69,1.35,1,.68.48,1,.7.79.5,1.18.73a.29.29,0,0,1,.1,0,.16.16,0,0,0,.08.06q1.74,1,3.39,2.16c.36.25.73.51,1.09.78s1,.72,1.41,1.1h0A53.87,53.87,0,0,1,100.5,180Z"/><polygon class="cls-3" points="60 179.96 43.48 179.96 46.94 150.8 54.82 150.8 60 179.96"/></g></g></svg>