<svg xmlns="http://www.w3.org/2000/svg" viewBox="0 0 100.91 180.5"><defs><style>.cls-1{fill:#0168b3;}.cls-2,.cls-6{fill:#eda235;}.cls-3{fill:#cadce0;}.cls-4{fill:#141720;}.cls-5{fill:none;stroke:#0168b3;stroke-miterlimit:10;}.cls-6{font-size:4.1px;font-family:CeraRoundProDEMO-Black, Cera Round Pro DEMO;}.cls-7{letter-spacing:-0.04em;}.cls-8{letter-spacing:-0.05em;}</style></defs><title>girl_itlsvg</title><g id="Слой_2" data-name="Слой 2"><g id="Слой_1-2" data-name="Слой 1"><path class="cls-1" d="M17.79,132.5c0,3.68-1.44,6.84-3.5,8.17a3.83,3.83,0,0,1-4.36,0c-2.06-1.33-3.5-4.49-3.5-8.17,0-1.91.76-6.16,1.07-5.13s3.19,3.41,4.34,3.4a6.17,6.17,0,0,0,4.89-3.4c.16-.49,1.06,3.22,1.06,5.13Z"/><path class="cls-1" d="M17.79,112a12.3,12.3,0,0,1-1.06,5.14c-1,2.24-2.72,3.71-4.62,3.71s-3.59-1.47-4.61-3.71A12.15,12.15,0,0,1,6.43,112a12,12,0,0,1,1.07-5.13s1.77,3.7,4.39,3.7c3.4,0,4.84-3.7,4.84-3.7A12.32,12.32,0,0,1,17.79,112Z"/><path class="cls-1" d="M17.79,122.24a12.34,12.34,0,0,1-1.06,5.14c-1,2.24-2.72,3.7-4.62,3.7s-3.59-1.46-4.61-3.7a12.18,12.18,0,0,1-1.07-5.14,12,12,0,0,1,1.07-5.13s1.77,3.69,4.39,3.7c3.4,0,4.84-3.7,4.84-3.7a12.29,12.29,0,0,1,1.06,5.13Z"/><path class="cls-1" d="M94.48,132.24a12.3,12.3,0,0,1-1.06,5.14c-1,2.24-2.72,3.71-4.62,3.71s-3.58-1.47-4.61-3.71a12.86,12.86,0,0,1,0-10.27s1.77,3.7,4.39,3.7c3.4,0,4.84-3.7,4.84-3.7a12.29,12.29,0,0,1,1.06,5.13Z"/><path class="cls-1" d="M94.48,122.22a12.34,12.34,0,0,1-1.06,5.14c-1,2.24-2.72,3.71-4.62,3.71s-3.58-1.47-4.61-3.71a12.86,12.86,0,0,1,0-10.27s1.77,3.69,4.39,3.7c3.4,0,4.84-3.7,4.84-3.7a12.29,12.29,0,0,1,1.06,5.13Z"/><path class="cls-1" d="M94.48,112a12.34,12.34,0,0,1-1.06,5.14c-1,2.24-2.72,3.7-4.62,3.7s-3.58-1.46-4.61-3.7a12.86,12.86,0,0,1,0-10.27s1.77,3.69,4.39,3.7c3.4,0,4.84-3.7,4.84-3.7A12.29,12.29,0,0,1,94.48,112Z"/><path class="cls-1" d="M94.48,101.68a12.1,12.1,0,0,1-1.06,5.13c-1,2.25-2.71,3.71-4.62,3.71s-3.58-1.46-4.61-3.71a12.83,12.83,0,0,1,0-10.26s1.77,3.69,4.39,3.7c3.4,0,4.84-3.7,4.84-3.7a12.14,12.14,0,0,1,1.06,5.13Z"/><path class="cls-1" d="M94.48,91.4a12.3,12.3,0,0,1-1.06,5.14c-1,2.24-2.72,3.71-4.62,3.71s-3.58-1.47-4.61-3.71a12.86,12.86,0,0,1,0-10.27S86,90,88.58,90c3.4,0,4.84-3.7,4.84-3.7a12.32,12.32,0,0,1,1.06,5.13Z"/><path class="cls-1" d="M94.48,81.13a12.3,12.3,0,0,1-1.06,5.14C92.39,88.51,90.7,90,88.8,90s-3.58-1.47-4.61-3.71a12.86,12.86,0,0,1,0-10.27s1.77,3.7,4.39,3.7c3.4,0,4.84-3.7,4.84-3.7a12.32,12.32,0,0,1,1.06,5.13Z"/><path class="cls-1" d="M17.79,91.41a12.34,12.34,0,0,1-1.06,5.14c-1,2.24-2.72,3.71-4.62,3.71S8.52,98.79,7.5,96.55a12.18,12.18,0,0,1-1.07-5.14A12,12,0,0,1,7.5,86.28S9.27,90,11.89,90c3.4,0,4.84-3.7,4.84-3.7a12.29,12.29,0,0,1,1.06,5.13Z"/><path class="cls-1" d="M17.79,81.13a12.3,12.3,0,0,1-1.06,5.14C15.7,88.51,14,90,12.11,90S8.52,88.51,7.5,86.27a12.15,12.15,0,0,1-1.07-5.14A12,12,0,0,1,7.5,76s1.77,3.7,4.39,3.7c3.4,0,4.84-3.7,4.84-3.7a12.32,12.32,0,0,1,1.06,5.13Z"/><path class="cls-1" d="M17.79,101.68a12.27,12.27,0,0,1-1.06,5.14c-1,2.25-2.72,3.71-4.62,3.71s-3.59-1.46-4.61-3.71a12.86,12.86,0,0,1,0-10.27s1.77,3.7,4.39,3.71c3.4,0,4.84-3.71,4.84-3.71a12.36,12.36,0,0,1,1.06,5.13Z"/><path class="cls-1" d="M17.79,70.87a2.91,2.91,0,0,1,0,.3A12.13,12.13,0,0,1,16.73,76c-.92,2-2.35,3.37-4,3.64a3,3,0,0,1-.61.06c-1.9,0-3.59-1.46-4.61-3.7a12.88,12.88,0,0,1,0-10.28,7.75,7.75,0,0,1,1.42-2.18A4.39,4.39,0,0,1,12.11,62c1.9,0,3.59,1.46,4.62,3.71a12.3,12.3,0,0,1,1.06,5.14Z"/><path class="cls-1" d="M17.79,60.59a12.37,12.37,0,0,1-1.06,5.14c-.92,2-2.37,3.39-4,3.65h0a3.45,3.45,0,0,1-.57.05c-1.9,0-3.59-1.46-4.61-3.7a12.18,12.18,0,0,1-1.07-5.14,13.43,13.43,0,0,1,.38-3.17c.82-3.31,2.88-5.67,5.3-5.67,3.14,0,5.68,4,5.68,8.84Z"/><path class="cls-1" d="M94.48,70.86c0,4.89-2.54,8.85-5.68,8.85s-5.67-4-5.67-8.85S85.67,62,88.8,62s5.68,4,5.68,8.84Z"/><path class="cls-1" d="M94.48,60.59c0,4.88-2.54,8.84-5.68,8.84s-5.67-4-5.67-8.84,2.54-8.84,5.67-8.84,5.68,4,5.68,8.84Z"/><path class="cls-2" d="M100.5,179.91H.59a50.59,50.59,0,0,1,2.66-16.27c.31-.92.65-1.83,1-2.74h0c.35-.9.75-1.78,1.16-2.66a50.76,50.76,0,0,1,3.62-6.39c.77-1.16,1.6-2.3,2.47-3.39.6-.76,1.21-1.49,1.84-2.19.32-.36.64-.71,1-1.06l1-1,.1-.08a50.29,50.29,0,0,1,5.3-4.61c.95-.71,1.91-1.38,2.91-2a2.55,2.55,0,0,1,.39-.24c.86-.56,1.75-1.09,2.65-1.58h.05l1-.57.21-.12.8-.5.76-.53.31-.22.7-.51.07,0,.73-.6h0c.54.55,1.08,1.09,1.66,1.59l.87.72s0,0,0,0l.81.64.19.13.85.59c.64.43,1.29.83,2,1.2.34.19.68.37,1,.54s.71.34,1.07.49a.37.37,0,0,0,.14.07c.82.35,1.64.67,2.49.94.32.1.64.2,1,.28l.88.23a.65.65,0,0,0,.2.05,27.3,27.3,0,0,0,2.94.51l1,.11c.7.06,1.39.08,2.1.08h1l.3,0c.44,0,.87-.05,1.31-.09l1.12-.13a.92.92,0,0,0,.29,0l.86-.14a1.47,1.47,0,0,0,.34-.07l.61-.12L57,140l1.24-.34c.4-.12.81-.25,1.2-.39a12.93,12.93,0,0,0,1.23-.46c.2-.08.4-.15.59-.24A23.78,23.78,0,0,0,64,137.1c.33-.18.64-.37.95-.56l.6-.41.5-.35c.34-.23.67-.48,1-.74s.65-.52,1-.79c.63-.53,1.23-1.1,1.81-1.69l0,0c.32.27.65.53,1,.78,0,0,0,0,0,0l.13.09,0,0c.29.23.6.44.91.65a1.07,1.07,0,0,0,.22.15c.33.23.68.45,1,.67s.78.47,1.18.68a1.4,1.4,0,0,1,.17.09l.3.18L75,136l.74.43,1.22.74c.38.24.77.49,1.15.76.78.5,1.54,1.06,2.28,1.63h0c.95.72,1.89,1.47,2.78,2.26s1.66,1.49,2.45,2.29a.75.75,0,0,1,.16.15A49.81,49.81,0,0,1,92,151.84a50.4,50.4,0,0,1,8.47,28.07Z"/><path class="cls-3" d="M77.07,137.24l-5,5.46a13.55,13.55,0,0,1-21.44-1.95v0l0,0a26.76,26.76,0,0,0,19.2-8.17h0a25.76,25.76,0,0,0,2.08,1.57l.22.15,1,.67,1.18.68a1.38,1.38,0,0,1,.17.08c.83.47,1.65,1,2.45,1.47l.19.12Z"/><path class="cls-4" d="M77.14,25.92A47,47,0,0,1,50.45,68.45a46.19,46.19,0,0,1-37.76.93h0l-.57-.25-.46-.2a46.79,46.79,0,0,1-2.73-5.38,44.28,44.28,0,0,1-2.11-6.13A45.63,45.63,0,0,1,50.45,0,44.66,44.66,0,0,1,72.73,5.92c.28.59.54,1.2.81,1.82a46.76,46.76,0,0,1,2.13,6.41,47.09,47.09,0,0,1,1.47,11.77Z"/><path class="cls-4" d="M95.63,45.57a45.72,45.72,0,0,1-4.48,19.8A47.32,47.32,0,0,1,73.54,7.74c.14-.36.3-.71.46-1.07a45.66,45.66,0,0,1,21.63,38.9Z"/><path class="cls-5" d="M88.8,43.28v29c0,.38,0,.75,0,1.13s0,.67,0,1,0,.61-.06.91,0,.44,0,.66,0,.25,0,.38,0,.49-.07.73c0,.45-.09.9-.16,1.36,0,.11,0,.22-.05.34s-.06.45-.1.68v0a.69.69,0,0,0,0,.13c-.06.29-.1.57-.15.86-.08.45-.17.91-.26,1.36,0,0,0,0,0,.06a.63.63,0,0,1,0,.19s0,0,0,.06c0,.2-.08.4-.13.59l0,.13a1.87,1.87,0,0,1-.08.32,4.64,4.64,0,0,1-.11.51c0,.1,0,.2-.08.3s0,.16-.07.24c-.2.78-.43,1.54-.66,2.3-.11.36-.23.72-.35,1.08a.76.76,0,0,1,0,.11l-.31.92,0,0-.12.29c-.11.3-.22.61-.35.91s-.29.74-.44,1.1-.27.64-.41,1c0,0-.05.1-.07.16-.16.34-.31.68-.47,1s-.33.71-.51,1.06l0,.05c-.33.67-.68,1.36-1,2l-.51.91a55.56,55.56,0,0,1-4.81,7.07c-.24.31-.48.62-.74.91s-.71.85-1.06,1.26-.62.69-.94,1l0,0c-.91,1-1.83,1.91-2.77,2.79l-.58.54-1,.85c-.25.23-.51.45-.78.67-.68.56-1.35,1.1-2,1.6a10.56,10.56,0,0,1-.87.62c-.47.35-1,.67-1.43,1-.26.18-.54.36-.81.52a.57.57,0,0,1-.13.08c-.92.56-1.85,1.09-2.76,1.54-.24.13-.47.24-.71.35l-.73.35-.93.4-.37.14-1.11.42c-.47.17-.93.31-1.4.45s-.64.18-1,.25l-.06,0c-.33.07-.64.15-1,.21l-.25,0c-.26,0-.52.09-.79.12s-.75.1-1.13.12a2.43,2.43,0,0,1-.38,0l-.89,0h0q-.44,0-.87,0a1.87,1.87,0,0,1-.34,0,7.78,7.78,0,0,1-.82-.07l-.18,0q-.52-.07-1.05-.18c-.3,0-.61-.11-.92-.18a26.7,26.7,0,0,1-4.94-1.68,37,37,0,0,1-4.32-2.3l-.25-.15c-.64-.4-1.29-.83-1.92-1.28-.36-.25-.71-.51-1.07-.78-1.13-.83-2.23-1.72-3.33-2.69l-.9-.84-.89-.84c-.7-.67-1.38-1.36-2-2.1a.74.74,0,0,1-.13-.12c-.27-.29-.54-.6-.81-.91-.75-.85-1.49-1.74-2.19-2.66-.27-.33-.52-.68-.78-1-.95-1.27-1.86-2.6-2.71-4-.22-.37-.45-.75-.66-1.12s-.52-.9-.78-1.36-.5-.93-.74-1.4c-.1-.21-.21-.41-.31-.62s-.08-.17-.13-.26c-.5-1-1.6-3.57-1.7-3.83s-.28-.7-.4-1c-.06-.16-.12-.32-.17-.48-.13-.35-.25-.69-.37-1-.17-.5-.33-1-.49-1.53s-.29-1-.42-1.49-.29-1.08-.41-1.63a.47.47,0,0,1,0-.17s0,0,0,0c-.18-.75-.33-1.5-.47-2.27-.06-.28-.11-.57-.15-.86-.13-.74-.22-1.5-.3-2.26-.05-.33-.08-.67-.11-1s-.06-.69-.08-1c-.05-.64-.08-1.28-.1-1.93,0-.38,0-.75,0-1.13v-29A38.54,38.54,0,0,1,48.35,4.66h.11l.79,0h2.51l.85,0h0l.39,0,.84.07.41,0,.28,0a39.2,39.2,0,0,1,4.4.73A37.83,37.83,0,0,1,66.13,8a37.44,37.44,0,0,1,6.05,3.43c.89.6,1.74,1.25,2.56,1.93l.93.8h0a37.55,37.55,0,0,1,5,5.27,38.59,38.59,0,0,1,8.15,23.52c0,.11,0,.23,0,.34Z"/><path class="cls-1" d="M95.63,45.57a45.24,45.24,0,0,1-1.55,11.82A42.7,42.7,0,0,1,92,63.53c-.26.62-.53,1.24-.83,1.83-.8-.51-1.58-1.07-2.35-1.66-.56-.41-1.12-.84-1.66-1.29a46.91,46.91,0,0,1-13.6-18.3A47.16,47.16,0,0,1,50.45,68.45a46.19,46.19,0,0,1-37.76.93h0l-.57-.25-.46-.2a46.79,46.79,0,0,1-2.73-5.38,45.2,45.2,0,0,1-2.11-6.13A45.63,45.63,0,0,1,50.45,0,44.76,44.76,0,0,1,72.73,5.91c.42.24.84.5,1.27.76a45.66,45.66,0,0,1,21.63,38.9Z"/><path class="cls-3" d="M50.73,140.69l0,.05v0l0,.07a13.54,13.54,0,0,1-21.39,1.88l-5.12-5.53c.87-.56,1.76-1.09,2.66-1.58h.05l1-.57a1.13,1.13,0,0,0,.21-.12l.79-.5.26-.17.51-.36.17-.11c.28-.2.56-.4.83-.61h0l.06-.06.74-.59v0a22.76,22.76,0,0,0,1.68,1.58c.28.25.58.5.87.72,0,0,0,0,0,0q.4.35.81.63l.19.14c.28.21.56.41.85.59a18.82,18.82,0,0,0,2,1.2q.51.28,1,.54c.36.18.72.34,1.08.49a.31.31,0,0,0,.14.07,26.56,26.56,0,0,0,2.49.94c.32.1.64.2,1,.28s.58.17.87.23a.8.8,0,0,0,.21,0,20.15,20.15,0,0,0,2.93.51c.34,0,.68.09,1,.11q1,.09,2.1.09Z"/><path class="cls-5" d="M100.41,180H.5a50.32,50.32,0,0,1,2.67-16.27c.3-.92.64-1.83,1-2.74h0c.36-.9.76-1.78,1.17-2.66A48.39,48.39,0,0,1,9,151.92c.77-1.16,1.6-2.3,2.46-3.39.61-.76,1.22-1.49,1.85-2.19.31-.36.64-.71,1-1.06s.66-.69,1-1l.09-.08a49.41,49.41,0,0,1,5.31-4.61c1-.71,1.91-1.38,2.9-2a4.11,4.11,0,0,1,.39-.24c.86-.56,1.75-1.09,2.65-1.58h.05a10.67,10.67,0,0,0,1-.57,1.19,1.19,0,0,0,.22-.12l.79-.5.26-.17c.22-.15.45-.3.67-.47s.57-.4.84-.61h0c.27-.2.55-.41.81-.63h0a32,32,0,0,0,4.34-4.22,30.54,30.54,0,0,0,3.16-4.47,58.9,58.9,0,0,0,2.58-5.48s6.21,2.2,9.16,2.2,9.25-2.25,9.25-2.25a31.6,31.6,0,0,0,2.56,5.53A32.08,32.08,0,0,0,65.11,128a30.64,30.64,0,0,0,4.64,4.61,8.45,8.45,0,0,0,.75.59,1.37,1.37,0,0,0,.24.18l0,0,.41.3c.23.16.44.32.67.47a1.7,1.7,0,0,0,.22.15l.51.35.52.32c.2.11.39.23.58.35s.39.24.59.34a1.4,1.4,0,0,1,.17.09l.31.17a1.18,1.18,0,0,1,.19.11l.74.43c.41.24.82.48,1.22.74s.77.49,1.15.76c.78.5,1.54,1.06,2.29,1.63h0c1,.72,1.88,1.48,2.78,2.26s1.66,1.48,2.45,2.28l.16.16a49.81,49.81,0,0,1,6.21,7.59A50.32,50.32,0,0,1,100.41,180Z"/><path class="cls-1" d="M17.67,151.28H6.56l3.35-11,1.45.41a4.82,4.82,0,0,0,1.87-.13l1-.5,1.06,3.5Z"/><path class="cls-1" d="M88.4,140.66l-1.74-.36-3.29,11H94.48L91.1,140l-1.23.55A10.35,10.35,0,0,1,88.4,140.66Z"/><polygon class="cls-1" points="80.06 158.37 75.71 161.7 71.32 158.5 70.83 149.47 80.51 149.41 80.06 158.37"/><text class="cls-6" transform="translate(72.27 153.82) scale(0.99 1)">I<tspan class="cls-7" x="1.24" y="0">T</tspan><tspan x="3.48" y="0">-</tspan><tspan class="cls-8" x="4.87" y="0">L</tspan></text></g></g></svg>