<?xml version="1.0" encoding="utf-8"?>
<!-- Generator: Adobe Illustrator 21.1.0, SVG Export Plug-In . SVG Version: 6.00 Build 0)  -->
<svg version="1.1" id="Countryflags.com" xmlns="http://www.w3.org/2000/svg" xmlns:xlink="http://www.w3.org/1999/xlink" x="0px"
	 y="0px" viewBox="0 0 30 30" style="enable-background:new 0 0 30 30;" xml:space="preserve">
<style type="text/css">
	.st0{fill:#FFFFFF;}
	.st1{fill:#D52B1E;}
	.st2{fill:#0039A6;}
	.st3{fill:none;}
</style>
<g>
	<path class="st0" d="M30,15H0c0-1.8,0.3-3.4,0.9-5C2.9,4.2,8.5,0,15,0s12.1,4.2,14.1,10C29.7,11.6,30,13.3,30,15z"/>
	<path class="st1" d="M30,15c0,1.8-0.3,3.4-0.9,5c-2,5.8-7.6,10-14.1,10S2.9,25.8,0.9,20C0.3,18.4,0,16.8,0,15H30z"/>
	<path class="st2" d="M30,15c0,1.8-0.3,3.4-0.9,5H0.9C0.3,18.4,0,16.8,0,15s0.3-3.4,0.9-5h28.3C29.7,11.6,30,13.3,30,15z"/>
</g>
<path class="st3" d="M30,15c0,1.8-0.3,3.4-0.9,5c-2,5.8-7.6,10-14.1,10S2.9,25.8,0.9,20C0.3,18.4,0,16.8,0,15s0.3-3.4,0.9-5
	C2.9,4.2,8.5,0,15,0s12.1,4.2,14.1,10C29.7,11.6,30,13.3,30,15z"/>
</svg>
